<svg width="52" height="67" viewBox="0 0 52 67" fill="none" xmlns="http://www.w3.org/2000/svg">
<path d="M11.6017 34.2408V49.1405L15.7238 51.4328V36.5331L11.6017 34.2408Z" fill="#FCE342"/>
<path d="M51 19.7709V51.4328L46.2722 54.119V27.7938L42.5473 29.6563V24.6419L51 19.7709Z" fill="#FCE342"/>
<path d="M1 51.4328V19.7709L11.6017 25.9603L15.7238 28.3669L25.7851 34.2408L33.808 29.6367V34.7668L25.7851 39.2551L5.44126 27.7938V49.1405L30.2264 63.236L25.7851 65.7594L1 51.4328Z" fill="#FCE342"/>
<path d="M11.6017 34.2408V49.1405L15.7238 51.4328V36.5331L11.6017 34.2408Z" fill="#FCE342"/>
<path d="M40.2144 25.9603V14.6133H11.6017V23.4958L15.7238 25.7881V18.9113H36.0209V28.3669L36.0287 33.5245V59.9392L40.2144 57.5609V31.1828V25.9603Z" fill="#FCE342"/>
<path d="M11.6017 34.2408V49.1405L15.7238 51.4328V36.5331L11.6017 34.2408Z" stroke="#FCE342" stroke-width="2"/>
<path d="M51 19.7709V51.4328L46.2722 54.119V27.7938L42.5473 29.6563V24.6419L51 19.7709Z" stroke="#FCE342" stroke-width="2"/>
<path d="M1 51.4328V19.7709L11.6017 25.9603L15.7238 28.3669L25.7851 34.2408L33.808 29.6367V34.7668L25.7851 39.2551L5.44126 27.7938V49.1405L30.2264 63.236L25.7851 65.7594L1 51.4328Z" stroke="#FCE342" stroke-width="2"/>
<path d="M11.6017 34.2408V49.1405L15.7238 51.4328V36.5331L11.6017 34.2408Z" stroke="#FCE342" stroke-width="2"/>
<path d="M40.2144 25.9603V14.6133H11.6017V23.4958L15.7238 25.7881V18.9113H36.0209V28.3669L36.0287 33.5245V59.9392L40.2144 57.5609V31.1828V25.9603Z" stroke="#FCE342" stroke-width="2"/>
<rect x="5.87109" y="7.44971" width="40.1146" height="4.87106" fill="white"/>
<rect x="3.00586" width="45.8453" height="4.87106" fill="white"/>
<path d="M23.6357 30.6012V21.9197V21.3467H28.077V30.6012L25.7847 31.9484L23.6357 30.6012Z" fill="white" stroke="white"/>
<path d="M23.6357 56.1416V48.6333V48.1377H28.077V56.1416V58.6474L23.6357 56.1416Z" fill="white"/>
<path d="M25.7847 57.3067L23.6357 56.1416M23.6357 56.1416V48.6333V48.1377H28.077V56.1416V58.6474L23.6357 56.1416Z" stroke="white"/>
<path d="M23.6357 42.8944V51.5759V52.1489H28.077V42.8944V40.4011L25.8308 41.581L23.6357 40.2977V42.8944Z" fill="white"/>
<path d="M28.077 42.8944V52.1489H23.6357V51.5759V42.8944V40.2977L25.8308 41.581L28.077 40.4011V42.8944ZM28.077 42.8944L28.0259 42.8644" stroke="white"/>
<path d="M40.2143 26.1034V14.7563H11.6016V23.6389L15.7237 25.9311V19.0543H36.0207V28.5099L36.0285 33.6675V60.0823L40.2143 57.704V31.3258V26.1034Z" fill="white"/>
<path d="M11.6016 34.3839V49.2836L15.7237 51.5758V36.6761L11.6016 34.3839Z" fill="white"/>
<path d="M40.2143 26.1034V14.7563H11.6016V23.6389L15.7237 25.9311V19.0543H36.0207V28.5099L36.0285 33.6675V60.0823L40.2143 57.704V31.3258V26.1034Z" stroke="white" stroke-width="2"/>
<path d="M11.6016 34.3839V49.2836L15.7237 51.5758V36.6761L11.6016 34.3839Z" stroke="white" stroke-width="2"/>
</svg>
